<svg xmlns="http://www.w3.org/2000/svg" xmlns:xlink="http://www.w3.org/1999/xlink" width="419" zoomAndPan="magnify" viewBox="0 36 419.25 200" height="200" preserveAspectRatio="xMidYMid meet" version="1.0"><defs><g/><clipPath id="e015198c5a"><path d="M 0 0.140625 L 418.5 0.140625 L 418.5 297.359375 L 0 297.359375 Z M 0 0.140625 " clip-rule="nonzero"/></clipPath><clipPath id="67d6140166"><path d="M 0 0.140625 L 418.222656 0.140625 L 418.222656 297.164062 L 0 297.164062 Z M 0 0.140625 " clip-rule="nonzero"/></clipPath><clipPath id="8506ca2d68"><path d="M 183.980469 0.699219 L 219.726562 0.699219 L 219.726562 36.445312 L 183.980469 36.445312 Z M 183.980469 0.699219 " clip-rule="nonzero"/></clipPath><clipPath id="c2a23c15b2"><path d="M 201.851562 0.699219 C 191.980469 0.699219 183.980469 8.703125 183.980469 18.574219 C 183.980469 28.441406 191.980469 36.445312 201.851562 36.445312 C 211.722656 36.445312 219.726562 28.441406 219.726562 18.574219 C 219.726562 8.703125 211.722656 0.699219 201.851562 0.699219 Z M 201.851562 0.699219 " clip-rule="nonzero"/></clipPath><clipPath id="008a983875"><path d="M 0.980469 0.699219 L 36.726562 0.699219 L 36.726562 36.445312 L 0.980469 36.445312 Z M 0.980469 0.699219 " clip-rule="nonzero"/></clipPath><clipPath id="8f3434768d"><path d="M 18.851562 0.699219 C 8.980469 0.699219 0.980469 8.703125 0.980469 18.574219 C 0.980469 28.441406 8.980469 36.445312 18.851562 36.445312 C 28.722656 36.445312 36.726562 28.441406 36.726562 18.574219 C 36.726562 8.703125 28.722656 0.699219 18.851562 0.699219 Z M 18.851562 0.699219 " clip-rule="nonzero"/></clipPath><clipPath id="022bdc0c5d"><rect x="0" width="37" y="0" height="37"/></clipPath><clipPath id="27600945c8"><path d="M 199.453125 5.320312 L 204.25 5.320312 L 204.25 31.824219 L 199.453125 31.824219 Z M 199.453125 5.320312 " clip-rule="nonzero"/></clipPath><clipPath id="7a04309f6f"><path d="M 0.453125 0.320312 L 5.25 0.320312 L 5.25 26.824219 L 0.453125 26.824219 Z M 0.453125 0.320312 " clip-rule="nonzero"/></clipPath><clipPath id="926cdfea60"><rect x="0" width="6" y="0" height="27"/></clipPath><clipPath id="51cb1f29b4"><path d="M 7 108 L 395 108 L 395 212 L 7 212 Z M 7 108 " clip-rule="nonzero"/></clipPath><clipPath id="40af0dcb64"><path d="M 7.472656 105.910156 L 396.066406 143.828125 L 389.359375 212.570312 L 0.765625 174.65625 Z M 7.472656 105.910156 " clip-rule="nonzero"/></clipPath><clipPath id="385e798954"><path d="M 7.472656 105.910156 L 396.066406 143.828125 L 389.359375 212.570312 L 0.765625 174.65625 Z M 7.472656 105.910156 " clip-rule="nonzero"/></clipPath><clipPath id="54ec724fb3"><rect x="0" width="397" y="0" height="213"/></clipPath><clipPath id="d6175570d2"><rect x="0" width="419" y="0" height="298"/></clipPath></defs><g clip-path="url(#e015198c5a)"><g transform="matrix(1, 0, 0, 1, 0, 0.000000000000006772)"><g clip-path="url(#d6175570d2)"><g transform="matrix(1, 0, 0, 1, 5, 42)"><g clip-path="url(#54ec724fb3)"><g clip-path="url(#8506ca2d68)"><g clip-path="url(#c2a23c15b2)"><g transform="matrix(1, 0, 0, 1, 183, 0.000000000000014211)"><g clip-path="url(#022bdc0c5d)"><g clip-path="url(#008a983875)"><g clip-path="url(#8f3434768d)"><path fill="#ffffff" d="M 0.980469 0.699219 L 36.726562 0.699219 L 36.726562 36.445312 L 0.980469 36.445312 Z M 0.980469 0.699219 " fill-opacity="1" fill-rule="nonzero"/></g></g></g></g></g></g><g clip-path="url(#27600945c8)"><g transform="matrix(1, 0, 0, 1, 199, 5)"><g clip-path="url(#926cdfea60)"><g clip-path="url(#7a04309f6f)"><path fill="#ffffff" d="M 0.453125 0.320312 L 5.25 0.320312 L 5.25 26.816406 L 0.453125 26.816406 Z M 0.453125 0.320312 " fill-opacity="1" fill-rule="nonzero"/></g></g></g></g><g clip-path="url(#51cb1f29b4)"><g clip-path="url(#40af0dcb64)"><g clip-path="url(#385e798954)"><path fill="#ffffff" d="M 12.25 111.019531 C 13.265625 127.078125 30.773438 136.722656 64.773438 139.957031 L 64.777344 139.957031 C 86.214844 142.011719 107.976562 142.808594 130.066406 142.339844 L 130.152344 142.339844 C 141.101562 142.472656 172.90625 141 225.558594 137.929688 L 225.625 137.925781 C 254.265625 137.03125 277.554688 136.902344 295.480469 137.535156 L 295.417969 137.53125 C 322.042969 137.789062 348.511719 141.257812 374.828125 147.941406 L 374.84375 147.945312 C 385.429688 150.703125 391.632812 153.019531 393.453125 154.894531 C 394.429688 155.902344 394.761719 157.003906 394.453125 158.199219 L 394.453125 158.203125 C 394.21875 159.089844 393.65625 159.804688 392.753906 160.351562 C 392.152344 160.71875 391.347656 161.023438 390.34375 161.269531 L 390.070312 161.320312 L 334.613281 168.535156 L 334.539062 168.542969 L 334.535156 168.542969 L 334.667969 168.527344 C 332.691406 168.832031 331.496094 169.066406 331.078125 169.230469 L 331.074219 169.230469 C 332.101562 168.828125 332.519531 168 332.324219 166.738281 L 332.324219 166.726562 C 332.183594 165.832031 331.71875 165.222656 330.9375 164.902344 C 331.890625 165.292969 332.515625 166.226562 332.511719 167.257812 L 332.511719 167.261719 C 332.515625 166.402344 332.214844 165.824219 331.613281 165.53125 C 331.859375 165.648438 332.410156 165.78125 333.265625 165.917969 L 333.277344 165.921875 C 357.488281 169.976562 370.636719 172.402344 372.722656 173.199219 L 372.410156 173.105469 C 379.265625 174.761719 383.574219 176.394531 385.339844 177.996094 L 386.15625 180.117188 L 385.257812 177.925781 C 386.007812 178.554688 386.5625 179.25 386.917969 180.011719 C 387.335938 180.914062 387.464844 181.855469 387.304688 182.839844 C 387.234375 183.269531 387.109375 183.695312 386.925781 184.117188 C 386.851562 184.292969 386.757812 184.457031 386.644531 184.609375 C 381.339844 191.882812 378.855469 196.699219 379.199219 199.066406 C 379.226562 199.261719 379.234375 199.460938 379.214844 199.660156 C 378.976562 202.222656 380.484375 204.585938 383.730469 206.757812 C 384.894531 207.53125 385.210938 209.105469 384.433594 210.269531 C 383.65625 211.433594 382.082031 211.746094 380.917969 210.96875 C 375.996094 207.683594 373.746094 203.757812 374.167969 199.195312 L 374.183594 199.789062 C 373.648438 196.0625 376.4375 190.007812 382.554688 181.625 L 382.273438 182.117188 C 382.292969 182.074219 382.304688 182.042969 382.304688 182.019531 L 382.304688 182.023438 C 382.300781 182.066406 382.304688 182.109375 382.324219 182.148438 L 382.324219 182.152344 C 382.289062 182.070312 382.183594 181.960938 382.011719 181.816406 L 381.113281 179.625 L 381.933594 181.746094 C 380.804688 180.722656 377.234375 179.484375 371.21875 178.027344 L 370.910156 177.933594 C 369.140625 177.253906 356.316406 174.917969 332.4375 170.917969 L 332.449219 170.917969 C 331.101562 170.699219 330.078125 170.417969 329.382812 170.078125 L 329.386719 170.078125 C 328.085938 169.441406 327.441406 168.496094 327.445312 167.238281 L 329.019531 169.59375 C 328.042969 169.195312 327.472656 168.5 327.320312 167.515625 L 327.316406 167.503906 C 327.101562 166.09375 327.738281 165.097656 329.230469 164.511719 C 329.996094 164.214844 331.546875 163.882812 333.890625 163.519531 L 334.027344 163.503906 L 334.03125 163.503906 L 333.957031 163.511719 L 389.417969 156.296875 L 389.144531 156.347656 C 389.640625 156.226562 389.964844 156.117188 390.121094 156.023438 C 389.855469 156.1875 389.664062 156.488281 389.550781 156.921875 L 389.546875 156.925781 C 389.382812 157.570312 389.46875 158.066406 389.816406 158.421875 C 388.652344 157.226562 383.238281 155.367188 373.566406 152.847656 L 373.582031 152.851562 C 347.660156 146.269531 321.589844 142.851562 295.367188 142.597656 L 295.304688 142.597656 C 277.484375 141.96875 254.3125 142.097656 225.785156 142.988281 L 225.851562 142.984375 C 173.082031 146.066406 141.160156 147.539062 130.089844 147.40625 L 130.175781 147.40625 C 107.886719 147.875 85.925781 147.074219 64.292969 144.996094 L 64.292969 145 C 27.421875 141.496094 8.390625 130.273438 7.195312 111.339844 C 7.105469 109.945312 8.167969 108.742188 9.5625 108.652344 C 10.960938 108.566406 12.164062 109.625 12.25 111.019531 Z M 12.25 111.019531 " fill-opacity="0.996" fill-rule="nonzero"/></g></g></g><g fill="#ffffff" fill-opacity="1"><g transform="translate(16.044721, 126.052947)"><g><path d="M 76.140625 -36.609375 C 77.160156 -37.460938 78.234375 -37.734375 79.359375 -37.421875 C 80.492188 -37.117188 81.0625 -36.378906 81.0625 -35.203125 C 81.0625 -30.453125 80.335938 -25.851562 78.890625 -21.40625 C 77.453125 -16.957031 75.25 -12.976562 72.28125 -9.46875 C 69.320312 -5.957031 65.582031 -3.1875 61.0625 -1.15625 C 56.539062 0.863281 51.160156 1.875 44.921875 1.875 C 38.835938 1.875 33.144531 0.800781 27.84375 -1.34375 C 22.539062 -3.488281 17.878906 -6.507812 13.859375 -10.40625 C 9.847656 -14.3125 6.726562 -18.914062 4.5 -24.21875 C 2.28125 -29.519531 1.171875 -35.289062 1.171875 -41.53125 C 1.171875 -47.289062 2.28125 -52.707031 4.5 -57.78125 C 6.726562 -62.851562 9.847656 -67.359375 13.859375 -71.296875 C 17.878906 -75.234375 22.597656 -78.3125 28.015625 -80.53125 C 33.429688 -82.75 39.378906 -83.859375 45.859375 -83.859375 C 51.234375 -83.859375 56.046875 -83.039062 60.296875 -81.40625 C 64.546875 -79.769531 68.148438 -77.644531 71.109375 -75.03125 C 74.078125 -72.414062 76.335938 -69.566406 77.890625 -66.484375 C 79.453125 -63.410156 80.234375 -60.472656 80.234375 -57.671875 C 80.234375 -52.054688 79.003906 -47.570312 76.546875 -44.21875 C 74.097656 -40.863281 71 -38.441406 67.25 -36.953125 C 63.507812 -35.472656 59.691406 -34.734375 55.796875 -34.734375 C 52.515625 -34.734375 49.375 -35.515625 46.375 -37.078125 C 43.375 -38.640625 40.914062 -40.84375 39 -43.6875 C 37.09375 -46.53125 36.140625 -49.863281 36.140625 -53.6875 C 36.140625 -56.957031 36.921875 -59.921875 38.484375 -62.578125 C 40.046875 -65.234375 42.171875 -67.335938 44.859375 -68.890625 C 47.546875 -70.453125 50.488281 -71.234375 53.6875 -71.234375 C 56.882812 -71.234375 59.710938 -70.507812 62.171875 -69.0625 C 64.628906 -67.625 66.617188 -65.8125 68.140625 -63.625 C 69.660156 -61.445312 70.578125 -59.304688 70.890625 -57.203125 C 71.117188 -55.867188 71.640625 -55.125 72.453125 -54.96875 C 73.273438 -54.8125 74.054688 -55.023438 74.796875 -55.609375 C 75.535156 -56.203125 75.789062 -56.925781 75.5625 -57.78125 C 74.707031 -61.832031 73.128906 -65.203125 70.828125 -67.890625 C 68.523438 -70.585938 65.875 -72.597656 62.875 -73.921875 C 59.875 -75.242188 56.8125 -75.90625 53.6875 -75.90625 C 49.707031 -75.90625 46.039062 -74.910156 42.6875 -72.921875 C 39.332031 -70.941406 36.625 -68.273438 34.5625 -64.921875 C 32.5 -61.566406 31.46875 -57.820312 31.46875 -53.6875 C 31.46875 -49.707031 32.5 -45.90625 34.5625 -42.28125 C 36.625 -38.65625 39.488281 -35.710938 43.15625 -33.453125 C 46.820312 -31.191406 51.035156 -30.0625 55.796875 -30.0625 C 58.597656 -30.0625 61.847656 -30.453125 65.546875 -31.234375 C 69.253906 -32.015625 72.785156 -33.804688 76.140625 -36.609375 Z M 76.140625 -36.609375 "/></g></g></g><g fill="#ffffff" fill-opacity="1"><g transform="translate(100.138954, 126.052947)"><g><path d="M 72.046875 -81.875 C 74.773438 -81.875 76.703125 -81.148438 77.828125 -79.703125 C 78.960938 -78.265625 79.53125 -76.222656 79.53125 -73.578125 L 79.53125 -8.3125 C 79.53125 -5.570312 78.960938 -3.5 77.828125 -2.09375 C 76.703125 -0.695312 74.773438 0 72.046875 0 L 50.875 0 C 45.8125 0 43.28125 -3 43.28125 -9 L 43.28125 -40.125 L 38.59375 -40.125 L 38.59375 -8.3125 C 38.59375 -5.65625 38.023438 -3.601562 36.890625 -2.15625 C 35.765625 -0.71875 33.835938 0 31.109375 0 L 9.828125 0 C 7.171875 0 5.257812 -0.71875 4.09375 -2.15625 C 2.925781 -3.601562 2.34375 -5.65625 2.34375 -8.3125 L 2.34375 -73.578125 C 2.34375 -76.304688 2.925781 -78.367188 4.09375 -79.765625 C 5.257812 -81.171875 7.171875 -81.875 9.828125 -81.875 L 31 -81.875 C 36.0625 -81.875 38.59375 -78.875 38.59375 -72.875 L 38.59375 -44.796875 L 43.28125 -44.796875 L 43.28125 -73.578125 C 43.28125 -76.222656 43.863281 -78.265625 45.03125 -79.703125 C 46.195312 -81.148438 48.109375 -81.875 50.765625 -81.875 Z M 72.046875 -81.875 "/></g></g></g><g fill="#ffffff" fill-opacity="1"><g transform="translate(182.010947, 126.052947)"><g><path d="M 38.59375 -8.3125 C 38.59375 -5.65625 38.023438 -3.601562 36.890625 -2.15625 C 35.765625 -0.71875 33.835938 0 31.109375 0 L 9.828125 0 C 7.171875 0 5.257812 -0.71875 4.09375 -2.15625 C 2.925781 -3.601562 2.34375 -5.65625 2.34375 -8.3125 L 2.34375 -73.578125 C 2.34375 -76.304688 2.925781 -78.367188 4.09375 -79.765625 C 5.257812 -81.171875 7.171875 -81.875 9.828125 -81.875 L 31 -81.875 C 36.0625 -81.875 38.59375 -78.875 38.59375 -72.875 Z M 38.59375 -8.3125 "/></g></g></g><g fill="#ffffff" fill-opacity="1"><g transform="translate(222.946945, 126.052947)"><g><path d="M 47.484375 -23.515625 L 46.78125 -23.515625 C 45.613281 -23.515625 44.738281 -24 44.15625 -24.96875 C 43.570312 -25.945312 43.28125 -27.21875 43.28125 -28.78125 L 43.28125 -74.15625 C 43.28125 -76.1875 42.5 -77.203125 40.9375 -77.203125 C 40.238281 -77.203125 39.671875 -77.0625 39.234375 -76.78125 C 38.804688 -76.507812 38.59375 -75.910156 38.59375 -74.984375 L 38.59375 -7.953125 C 38.59375 -5.609375 38.179688 -3.867188 37.359375 -2.734375 C 36.546875 -1.609375 35.554688 -0.867188 34.390625 -0.515625 C 33.222656 -0.171875 32.09375 0 31 0 L 10.0625 0 C 8.1875 0 6.679688 -0.445312 5.546875 -1.34375 C 4.421875 -2.238281 3.601562 -3.3125 3.09375 -4.5625 C 2.59375 -5.8125 2.34375 -6.984375 2.34375 -8.078125 L 2.34375 -73.578125 C 2.34375 -79.109375 4.796875 -81.875 9.703125 -81.875 L 48.3125 -81.875 C 51.894531 -81.875 55.554688 -81.40625 59.296875 -80.46875 C 63.046875 -79.539062 66.5 -78.003906 69.65625 -75.859375 C 72.8125 -73.710938 75.34375 -70.84375 77.25 -67.25 C 79.164062 -63.664062 80.125 -59.1875 80.125 -53.8125 C 80.125 -47.570312 79.050781 -42.460938 76.90625 -38.484375 C 74.757812 -34.503906 72.03125 -31.421875 68.71875 -29.234375 C 65.40625 -27.054688 61.859375 -25.554688 58.078125 -24.734375 C 54.296875 -23.921875 50.765625 -23.515625 47.484375 -23.515625 Z M 47.484375 -23.515625 "/></g></g></g><g fill="#ffffff" fill-opacity="1"><g transform="translate(303.649349, 126.052947)"><g><path d="M 44.453125 1.984375 C 35.398438 1.984375 27.640625 0.523438 21.171875 -2.390625 C 14.703125 -5.316406 9.75 -9.9375 6.3125 -16.25 C 2.882812 -22.570312 1.171875 -30.84375 1.171875 -41.0625 C 1.171875 -51.195312 2.882812 -59.398438 6.3125 -65.671875 C 9.75 -71.953125 14.703125 -76.535156 21.171875 -79.421875 C 27.640625 -82.304688 35.398438 -83.75 44.453125 -83.75 C 53.492188 -83.75 61.25 -82.304688 67.71875 -79.421875 C 74.195312 -76.535156 79.148438 -71.953125 82.578125 -65.671875 C 86.003906 -59.398438 87.71875 -51.195312 87.71875 -41.0625 C 87.71875 -30.84375 86.003906 -22.570312 82.578125 -16.25 C 79.148438 -9.9375 74.195312 -5.316406 67.71875 -2.390625 C 61.25 0.523438 53.492188 1.984375 44.453125 1.984375 Z M 42.109375 -76.609375 L 42.109375 -5.609375 C 42.109375 -4.523438 42.5 -3.785156 43.28125 -3.390625 C 44.0625 -3.003906 44.835938 -3.003906 45.609375 -3.390625 C 46.390625 -3.785156 46.78125 -4.523438 46.78125 -5.609375 L 46.78125 -76.609375 C 46.78125 -77.703125 46.390625 -78.425781 45.609375 -78.78125 C 44.835938 -79.132812 44.0625 -79.132812 43.28125 -78.78125 C 42.5 -78.425781 42.109375 -77.703125 42.109375 -76.609375 Z M 42.109375 -76.609375 "/></g></g></g></g></g></g></g></g></svg>